<mxfile host="Electron" agent="Mozilla/5.0 (Windows NT 10.0; Win64; x64) AppleWebKit/537.36 (KHTML, like Gecko) draw.io/24.7.17 Chrome/128.0.6613.36 Electron/32.0.1 Safari/537.36" version="24.7.17">
  <diagram name="Seite-1" id="5upymp8Bjm5yj8fmslHi">
    <mxGraphModel dx="1816" dy="577" grid="1" gridSize="10" guides="1" tooltips="1" connect="1" arrows="1" fold="1" page="1" pageScale="1" pageWidth="827" pageHeight="1169" math="0" shadow="0">
      <root>
        <mxCell id="0" />
        <mxCell id="1" parent="0" />
        <mxCell id="0xNg3Ng6j2RBfvfoK4XD-18" value="Settings" style="shape=umlFrame;whiteSpace=wrap;html=1;pointerEvents=0;recursiveResize=0;container=1;collapsible=0;width=160;" parent="1" vertex="1">
          <mxGeometry x="-800" y="150" width="440" height="410" as="geometry" />
        </mxCell>
        <mxCell id="0xNg3Ng6j2RBfvfoK4XD-7" style="edgeStyle=orthogonalEdgeStyle;rounded=0;orthogonalLoop=1;jettySize=auto;html=1;entryX=0;entryY=0.5;entryDx=0;entryDy=0;" parent="0xNg3Ng6j2RBfvfoK4XD-18" source="0xNg3Ng6j2RBfvfoK4XD-1" target="0xNg3Ng6j2RBfvfoK4XD-4" edge="1">
          <mxGeometry relative="1" as="geometry" />
        </mxCell>
        <mxCell id="0xNg3Ng6j2RBfvfoK4XD-1" value="" style="ellipse;whiteSpace=wrap;html=1;aspect=fixed;fillColor=#000000;" parent="0xNg3Ng6j2RBfvfoK4XD-18" vertex="1">
          <mxGeometry x="40" y="170" width="40" height="40" as="geometry" />
        </mxCell>
        <mxCell id="0xNg3Ng6j2RBfvfoK4XD-2" value="" style="ellipse;whiteSpace=wrap;html=1;aspect=fixed;" parent="0xNg3Ng6j2RBfvfoK4XD-18" vertex="1">
          <mxGeometry x="360" y="170" width="40" height="40" as="geometry" />
        </mxCell>
        <mxCell id="0xNg3Ng6j2RBfvfoK4XD-3" value="" style="ellipse;whiteSpace=wrap;html=1;aspect=fixed;fillColor=#000000;" parent="0xNg3Ng6j2RBfvfoK4XD-18" vertex="1">
          <mxGeometry x="366.40999999999985" y="176.40999999999997" width="27.18" height="27.18" as="geometry" />
        </mxCell>
        <mxCell id="0xNg3Ng6j2RBfvfoK4XD-8" style="edgeStyle=orthogonalEdgeStyle;rounded=0;orthogonalLoop=1;jettySize=auto;html=1;entryX=0;entryY=0.5;entryDx=0;entryDy=0;" parent="0xNg3Ng6j2RBfvfoK4XD-18" source="0xNg3Ng6j2RBfvfoK4XD-4" target="0xNg3Ng6j2RBfvfoK4XD-2" edge="1">
          <mxGeometry relative="1" as="geometry" />
        </mxCell>
        <mxCell id="AyYFYYakyzhiCra0TaYA-2" value="&lt;div&gt;back()&lt;/div&gt;&lt;div&gt;leaveApplication()&lt;/div&gt;" style="edgeLabel;html=1;align=center;verticalAlign=middle;resizable=0;points=[];" vertex="1" connectable="0" parent="0xNg3Ng6j2RBfvfoK4XD-8">
          <mxGeometry x="-0.075" y="1" relative="1" as="geometry">
            <mxPoint x="4" y="-19" as="offset" />
          </mxGeometry>
        </mxCell>
        <mxCell id="AyYFYYakyzhiCra0TaYA-4" style="edgeStyle=orthogonalEdgeStyle;rounded=0;orthogonalLoop=1;jettySize=auto;html=1;exitX=0.25;exitY=0;exitDx=0;exitDy=0;entryX=0.25;entryY=1;entryDx=0;entryDy=0;" edge="1" parent="0xNg3Ng6j2RBfvfoK4XD-18" source="0xNg3Ng6j2RBfvfoK4XD-4" target="AyYFYYakyzhiCra0TaYA-3">
          <mxGeometry relative="1" as="geometry" />
        </mxCell>
        <mxCell id="AyYFYYakyzhiCra0TaYA-6" value="openAudioSettings()" style="edgeLabel;html=1;align=center;verticalAlign=middle;resizable=0;points=[];" vertex="1" connectable="0" parent="AyYFYYakyzhiCra0TaYA-4">
          <mxGeometry x="0.1125" relative="1" as="geometry">
            <mxPoint x="-60" y="2" as="offset" />
          </mxGeometry>
        </mxCell>
        <mxCell id="AyYFYYakyzhiCra0TaYA-14" style="edgeStyle=orthogonalEdgeStyle;rounded=0;orthogonalLoop=1;jettySize=auto;html=1;exitX=0.25;exitY=1;exitDx=0;exitDy=0;entryX=0.25;entryY=0;entryDx=0;entryDy=0;" edge="1" parent="0xNg3Ng6j2RBfvfoK4XD-18" source="0xNg3Ng6j2RBfvfoK4XD-4" target="AyYFYYakyzhiCra0TaYA-13">
          <mxGeometry relative="1" as="geometry" />
        </mxCell>
        <mxCell id="AyYFYYakyzhiCra0TaYA-15" value="openVideoSettings()" style="edgeLabel;html=1;align=center;verticalAlign=middle;resizable=0;points=[];" vertex="1" connectable="0" parent="AyYFYYakyzhiCra0TaYA-14">
          <mxGeometry x="-0.1125" y="2" relative="1" as="geometry">
            <mxPoint x="-62" y="2" as="offset" />
          </mxGeometry>
        </mxCell>
        <mxCell id="0xNg3Ng6j2RBfvfoK4XD-4" value="MainSettings" style="rounded=1;whiteSpace=wrap;html=1;" parent="0xNg3Ng6j2RBfvfoK4XD-18" vertex="1">
          <mxGeometry x="120" y="170" width="120" height="40" as="geometry" />
        </mxCell>
        <mxCell id="AyYFYYakyzhiCra0TaYA-5" style="edgeStyle=orthogonalEdgeStyle;rounded=0;orthogonalLoop=1;jettySize=auto;html=1;exitX=0.75;exitY=1;exitDx=0;exitDy=0;entryX=0.75;entryY=0;entryDx=0;entryDy=0;" edge="1" parent="0xNg3Ng6j2RBfvfoK4XD-18" source="AyYFYYakyzhiCra0TaYA-3" target="0xNg3Ng6j2RBfvfoK4XD-4">
          <mxGeometry relative="1" as="geometry" />
        </mxCell>
        <mxCell id="AyYFYYakyzhiCra0TaYA-7" value="back()" style="edgeLabel;html=1;align=center;verticalAlign=middle;resizable=0;points=[];" vertex="1" connectable="0" parent="AyYFYYakyzhiCra0TaYA-5">
          <mxGeometry x="-0.0708" y="4" relative="1" as="geometry">
            <mxPoint x="13" y="-7" as="offset" />
          </mxGeometry>
        </mxCell>
        <mxCell id="AyYFYYakyzhiCra0TaYA-3" value="AudioSettings" style="rounded=1;whiteSpace=wrap;html=1;" vertex="1" parent="0xNg3Ng6j2RBfvfoK4XD-18">
          <mxGeometry x="120" y="90" width="120" height="40" as="geometry" />
        </mxCell>
        <mxCell id="AyYFYYakyzhiCra0TaYA-8" style="edgeStyle=orthogonalEdgeStyle;rounded=1;orthogonalLoop=1;jettySize=auto;html=1;exitX=0.25;exitY=0;exitDx=0;exitDy=0;entryX=0.75;entryY=0;entryDx=0;entryDy=0;curved=0;" edge="1" parent="0xNg3Ng6j2RBfvfoK4XD-18" source="AyYFYYakyzhiCra0TaYA-3" target="AyYFYYakyzhiCra0TaYA-3">
          <mxGeometry relative="1" as="geometry">
            <Array as="points">
              <mxPoint x="150" y="70" />
              <mxPoint x="210" y="70" />
            </Array>
          </mxGeometry>
        </mxCell>
        <mxCell id="AyYFYYakyzhiCra0TaYA-9" value="&lt;div&gt;setDisplay()&lt;/div&gt;&lt;div&gt;setResolution(Resolution)&lt;/div&gt;&lt;div&gt;setVSynch()&lt;/div&gt;" style="edgeLabel;html=1;align=center;verticalAlign=middle;resizable=0;points=[];" vertex="1" connectable="0" parent="AyYFYYakyzhiCra0TaYA-8">
          <mxGeometry x="-0.0567" y="-2" relative="1" as="geometry">
            <mxPoint x="3" y="-22" as="offset" />
          </mxGeometry>
        </mxCell>
        <mxCell id="AyYFYYakyzhiCra0TaYA-16" style="edgeStyle=orthogonalEdgeStyle;rounded=0;orthogonalLoop=1;jettySize=auto;html=1;exitX=0.75;exitY=0;exitDx=0;exitDy=0;entryX=0.75;entryY=1;entryDx=0;entryDy=0;" edge="1" parent="0xNg3Ng6j2RBfvfoK4XD-18" source="AyYFYYakyzhiCra0TaYA-13" target="0xNg3Ng6j2RBfvfoK4XD-4">
          <mxGeometry relative="1" as="geometry" />
        </mxCell>
        <mxCell id="AyYFYYakyzhiCra0TaYA-17" value="back()" style="edgeLabel;html=1;align=center;verticalAlign=middle;resizable=0;points=[];" vertex="1" connectable="0" parent="AyYFYYakyzhiCra0TaYA-16">
          <mxGeometry x="0.0708" y="-1" relative="1" as="geometry">
            <mxPoint x="16" as="offset" />
          </mxGeometry>
        </mxCell>
        <mxCell id="AyYFYYakyzhiCra0TaYA-13" value="VideoSettings" style="rounded=1;whiteSpace=wrap;html=1;" vertex="1" parent="0xNg3Ng6j2RBfvfoK4XD-18">
          <mxGeometry x="120" y="250" width="120" height="40" as="geometry" />
        </mxCell>
        <mxCell id="AyYFYYakyzhiCra0TaYA-18" style="edgeStyle=orthogonalEdgeStyle;rounded=1;orthogonalLoop=1;jettySize=auto;html=1;exitX=0.25;exitY=1;exitDx=0;exitDy=0;entryX=0.75;entryY=1;entryDx=0;entryDy=0;curved=0;" edge="1" parent="0xNg3Ng6j2RBfvfoK4XD-18" source="AyYFYYakyzhiCra0TaYA-13" target="AyYFYYakyzhiCra0TaYA-13">
          <mxGeometry relative="1" as="geometry" />
        </mxCell>
        <mxCell id="AyYFYYakyzhiCra0TaYA-19" value="&lt;div&gt;setMainVolume()&lt;/div&gt;&lt;div&gt;toggleMainVolume()&lt;/div&gt;&lt;div&gt;setMusic()&lt;/div&gt;&lt;div&gt;toggleMusic()&lt;/div&gt;&lt;div&gt;setSound()&lt;/div&gt;&lt;div&gt;toggleSound()&lt;/div&gt;" style="edgeLabel;html=1;align=center;verticalAlign=middle;resizable=0;points=[];" vertex="1" connectable="0" parent="AyYFYYakyzhiCra0TaYA-18">
          <mxGeometry x="0.3933" relative="1" as="geometry">
            <mxPoint x="-20" y="48" as="offset" />
          </mxGeometry>
        </mxCell>
      </root>
    </mxGraphModel>
  </diagram>
</mxfile>
